<?xml version="1.0" encoding="UTF-8"?>
<svg width="220px" height="40px" viewBox="0 0 220 40" version="1.1" xmlns="http://www.w3.org/2000/svg" xmlns:xlink="http://www.w3.org/1999/xlink">
    <!-- Generator: Sketch 58 (84663) - https://sketch.com -->
    <title>blue-medium</title>
    <desc>Created with Sketch.</desc>
    <g id="Subscription-assets" stroke="none" stroke-width="1" fill="none" fill-rule="evenodd">
        <g id="Maksa-MobilePaylla---editable-Copy" transform="translate(-21.000000, -94.000000)">
            <g id="blue-medium" transform="translate(21.000000, 94.000000)">
                <rect id="Background" fill="#5A78FF" x="0" y="0" width="220" height="40" rx="4"></rect>
                <path d="M45.032,25 L43.208,25 C43.1013328,25 43.0266669,24.9680003 42.984,24.904 C42.9413331,24.8399997 42.9359998,24.7546672 42.968,24.648 L46.216,14.376 C46.2373334,14.301333 46.277333,14.2400002 46.336,14.192 C46.394667,14.1439998 46.4559997,14.12 46.52,14.12 L48.152,14.12 C48.2160003,14.12 48.277333,14.1439998 48.336,14.192 C48.394667,14.2400002 48.4399998,14.301333 48.472,14.376 L51,20.856 C51.0213334,20.9200003 51.0586664,20.9546666 51.112,20.96 C51.1520002,20.964 51.183,20.9455002 51.205,20.9045002 L53.736,14.376 C53.7680002,14.301333 53.813333,14.2400002 53.872,14.192 C53.930667,14.1439998 53.9919997,14.12 54.056,14.12 L55.688,14.12 C55.7520003,14.12 55.813333,14.1439998 55.872,14.192 C55.930667,14.2400002 55.9706666,14.301333 55.992,14.376 L59.176,24.648 C59.2080002,24.7440005 59.2000002,24.8266663 59.152,24.896 C59.1039998,24.9653337 59.0320005,25 58.936,25 L57,25 C56.925333,25 56.8640002,24.9813335 56.816,24.944 C56.7679998,24.9066665 56.7333334,24.850667 56.712,24.776 L54.648,18.104 C54.6373333,18.0399997 54.602667,18.008 54.544,18.008 C54.485333,18.008 54.4453334,18.0399997 54.424,18.104 L51.992,24.728 C51.9599998,24.8133338 51.914667,24.8799998 51.856,24.928 C51.797333,24.9760002 51.7253338,25 51.64,25 L50.504,25 C50.4186662,25 50.3493336,24.9786669 50.296,24.936 C50.2426664,24.8933331 50.2000002,24.8240005 50.168,24.728 L47.656,18.104 C47.6346666,18.0399997 47.6000002,18.008 47.552,18.008 C47.5039998,18.008 47.4693334,18.0399997 47.448,18.104 L45.336,24.776 C45.3146666,24.850667 45.2773336,24.9066665 45.224,24.944 C45.1706664,24.9813335 45.106667,25 45.032,25 Z M66.2705001,24.0874998 L66.216,24.136 C65.7999979,24.5200019 65.3893354,24.7946658 64.984,24.96 C64.5786646,25.1253342 64.1306691,25.208 63.64,25.208 C62.5413278,25.208 61.6106705,24.8000041 60.848,23.984 C60.0853295,23.1679959 59.704,22.1680059 59.704,20.984 C59.704,19.7999941 60.0906628,18.8000041 60.864,17.984 C61.6373372,17.1679959 62.5733278,16.76 63.672,16.76 C64.0560019,16.76 64.4159983,16.8239994 64.752,16.952 C65.0208013,17.0544005 65.2981327,17.2079993 65.5839995,17.4127995 L65.8,17.576 C65.874667,17.6400003 65.9439997,17.6666667 66.008,17.656 C66.0720003,17.6453333 66.104,17.5920005 66.104,17.496 L66.104,17.256 C66.104,17.1706662 66.133333,17.1013336 66.192,17.048 C66.250667,16.9946664 66.317333,16.968 66.392,16.968 L67.896,16.968 C67.9813338,16.968 68.053333,16.997333 68.112,17.056 C68.170667,17.114667 68.2,17.1866662 68.2,17.272 L68.2,22.568 C68.2,22.76 68.2346663,22.9039995 68.304,23 C68.3733337,23.0960005 68.4773326,23.1493333 68.616,23.16 C68.690667,23.1706667 68.7546664,23.1999998 68.808,23.248 C68.8613336,23.2960002 68.888,23.3519997 68.888,23.416 L68.888,24.808 C68.888,24.882667 68.8613336,24.9466664 68.808,25 C68.7546664,25.0533336 68.690667,25.08 68.616,25.08 C68.1039974,25.08 67.6826683,25.0053341 67.352,24.856 C67.0213317,24.7066659 66.7653342,24.4773349 66.584,24.168 C66.5306664,24.0826662 66.474667,24.0373334 66.416,24.032 C66.3719998,24.028 66.3235001,24.0464998 66.2705001,24.0874998 L66.2705001,24.0874998 Z M61.896,20.984 C61.896,21.6026698 62.1013313,22.1306645 62.512,22.568 C62.9226687,23.0053355 63.4213304,23.224 64.008,23.224 C64.5946696,23.224 65.0906646,23.0080022 65.496,22.576 C65.9013354,22.1439978 66.104,21.6133365 66.104,20.984 C66.104,20.3546635 65.9013354,19.8240022 65.496,19.392 C65.0906646,18.9599978 64.5946696,18.744 64.008,18.744 C63.4213304,18.744 62.9226687,18.9626645 62.512,19.4 C62.1013313,19.8373355 61.896,20.3653302 61.896,20.984 Z M77.192,25.08 C76.3386624,25.08 75.6880022,24.9360014 75.24,24.648 C74.7919978,24.3599986 74.2853362,23.7466714 73.72,22.808 L73.08,21.752 C73.0266664,21.6666662 72.970667,21.6213334 72.912,21.616 C72.853333,21.6106666 72.7813338,21.645333 72.696,21.72 L72.296,22.104 C72.2639998,22.1253334 72.2426667,22.1546665 72.232,22.192 C72.2248889,22.216889 72.2201481,22.2524443 72.2177778,22.2986665 L72.216,24.696 C72.216,24.770667 72.186667,24.8399997 72.128,24.904 C72.069333,24.9680003 71.9973338,25 71.912,25 L70.376,25 C70.301333,25 70.234667,24.970667 70.176,24.912 C70.117333,24.853333 70.088,24.7813338 70.088,24.696 L70.088,14.424 C70.088,14.3386662 70.117333,14.266667 70.176,14.208 C70.234667,14.149333 70.301333,14.12 70.376,14.12 L71.912,14.12 C71.9973338,14.12 72.069333,14.149333 72.128,14.208 C72.186667,14.266667 72.216,14.3386662 72.216,14.424 L72.216,19.544 C72.216,19.6506672 72.253333,19.7119999 72.328,19.728 C72.402667,19.7440001 72.477333,19.7093338 72.552,19.624 L74.904,17.176 C74.9680003,17.1119997 75.0346663,17.0613335 75.104,17.024 C75.1733337,16.9866665 75.2346664,16.968 75.288,16.968 L76.888,16.968 C77.0160006,16.968 77.1039998,17.0293327 77.152,17.152 C77.2000002,17.2746673 77.1813338,17.3786662 77.096,17.464 L74.696,19.896 C74.6106662,19.9813338 74.5626667,20.0666662 74.552,20.152 C74.5413333,20.2373338 74.5679997,20.3279995 74.632,20.424 L75.304,21.512 C75.7093354,22.1733366 76.0479986,22.6186655 76.32,22.848 C76.553144,23.0445724 76.7999992,23.1568982 77.060571,23.1849797 L77.192,23.192 C77.2880005,23.192 77.365333,23.221333 77.424,23.28 C77.482667,23.338667 77.512,23.4159995 77.512,23.512 L77.512,24.776 C77.512,24.8613338 77.4800003,24.933333 77.416,24.992 C77.3519997,25.050667 77.2773338,25.08 77.192,25.08 Z M85.16,22.408 C85.16,23.2400042 84.8213367,23.9146641 84.144,24.432 C83.4666633,24.9493359 82.6000053,25.208 81.544,25.208 C80.5306616,25.208 79.6986699,24.9946688 79.048,24.568 C78.3973301,24.1413312 78.0293338,23.5760035 77.944,22.872 C77.9226666,22.7226659 77.9359998,22.6240002 77.984,22.576 C78.0320002,22.5279998 78.1146661,22.504 78.232,22.504 L79.688,22.504 C79.7946672,22.504 79.8799997,22.5226665 79.944,22.56 C80.0080003,22.5973335 80.0719997,22.6693328 80.136,22.776 C80.3066675,23.0853349 80.5119988,23.3039994 80.752,23.432 C80.9920012,23.5600006 81.2879982,23.624 81.64,23.624 C82.0453354,23.624 82.3786654,23.5360009 82.64,23.36 C82.9013346,23.1839991 83.032,22.9680013 83.032,22.712 C83.032,22.4879989 82.9226678,22.3146673 82.704,22.192 C82.5290658,22.0938662 82.1817621,21.9974402 81.6620813,21.9027202 L80.8134989,21.7614999 C80.4164988,21.6924999 80.1080011,21.6280003 79.888,21.568 C79.5946652,21.4879996 79.3413344,21.3893339 79.128,21.272 C78.7653315,21.079999 78.4986675,20.8346682 78.328,20.536 C78.1573325,20.2373318 78.072,19.8800021 78.072,19.464 C78.072,18.6319958 78.3839969,17.9733358 79.008,17.488 C79.6320031,17.0026642 80.4826613,16.76 81.56,16.76 C82.4560045,16.76 83.1866638,16.9519981 83.752,17.336 C84.3173362,17.7200019 84.6853325,18.2693298 84.856,18.984 C84.8880002,19.1226674 84.8773336,19.221333 84.824,19.28 C84.7706664,19.338667 84.6800006,19.368 84.552,19.368 L83.224,19.368 C83.1173328,19.368 83.0320003,19.3493335 82.968,19.312 C82.9039997,19.2746665 82.8453336,19.2080005 82.792,19.112 C82.6533326,18.845332 82.480001,18.6506673 82.272,18.528 C82.063999,18.4053327 81.8053349,18.344 81.496,18.344 C81.1226648,18.344 80.8213345,18.4239992 80.592,18.584 C80.3626655,18.7440008 80.248,18.9466654 80.248,19.192 C80.248,19.4053344 80.3546656,19.5733327 80.568,19.696 C80.7813344,19.8186673 81.2613296,19.9386661 82.008,20.056 L82.4345011,20.1200001 C82.8315012,20.1840001 83.1399989,20.2479997 83.36,20.312 C83.6533348,20.3973338 83.9066656,20.4933328 84.12,20.6 C84.4720018,20.792001 84.7333325,21.0373318 84.904,21.336 C85.0746675,21.6346682 85.16,21.9919979 85.16,22.408 Z M92.6385001,24.0874998 L92.584,24.136 C92.1679979,24.5200019 91.7573354,24.7946658 91.352,24.96 C90.9466646,25.1253342 90.4986691,25.208 90.008,25.208 C88.9093278,25.208 87.9786705,24.8000041 87.216,23.984 C86.4533295,23.1679959 86.072,22.1680059 86.072,20.984 C86.072,19.7999941 86.4586628,18.8000041 87.232,17.984 C88.0053372,17.1679959 88.9413278,16.76 90.04,16.76 C90.4240019,16.76 90.7839983,16.8239994 91.12,16.952 C91.3888013,17.0544005 91.6661327,17.2079993 91.9519995,17.4127995 L92.168,17.576 C92.242667,17.6400003 92.3119997,17.6666667 92.376,17.656 C92.4400003,17.6453333 92.472,17.5920005 92.472,17.496 L92.472,17.256 C92.472,17.1706662 92.501333,17.1013336 92.56,17.048 C92.618667,16.9946664 92.685333,16.968 92.76,16.968 L94.264,16.968 C94.3493338,16.968 94.421333,16.997333 94.48,17.056 C94.538667,17.114667 94.568,17.1866662 94.568,17.272 L94.568,22.568 C94.568,22.76 94.6026663,22.9039995 94.672,23 C94.7413337,23.0960005 94.8453326,23.1493333 94.984,23.16 C95.058667,23.1706667 95.1226664,23.1999998 95.176,23.248 C95.2293336,23.2960002 95.256,23.3519997 95.256,23.416 L95.256,24.808 C95.256,24.882667 95.2293336,24.9466664 95.176,25 C95.1226664,25.0533336 95.058667,25.08 94.984,25.08 C94.4719974,25.08 94.0506683,25.0053341 93.72,24.856 C93.3893317,24.7066659 93.1333342,24.4773349 92.952,24.168 C92.8986664,24.0826662 92.842667,24.0373334 92.784,24.032 C92.7399998,24.028 92.6915001,24.0464998 92.6385001,24.0874998 L92.6385001,24.0874998 Z M88.264,20.984 C88.264,21.6026698 88.4693313,22.1306645 88.88,22.568 C89.2906687,23.0053355 89.7893304,23.224 90.376,23.224 C90.9626696,23.224 91.4586646,23.0080022 91.864,22.576 C92.2693354,22.1439978 92.472,21.6133365 92.472,20.984 C92.472,20.3546635 92.2693354,19.8240022 91.864,19.392 C91.4586646,18.9599978 90.9626696,18.744 90.376,18.744 C89.7893304,18.744 89.2906687,18.9626645 88.88,19.4 C88.4693313,19.8373355 88.264,20.3653302 88.264,20.984 Z M100.648,25 L98.824,25 C98.7173328,25 98.6426669,24.9680003 98.6,24.904 C98.5573331,24.8399997 98.5519998,24.7546672 98.584,24.648 L101.832,14.376 C101.853333,14.301333 101.893333,14.2400002 101.952,14.192 C102.010667,14.1439998 102.072,14.12 102.136,14.12 L103.768,14.12 C103.832,14.12 103.893333,14.1439998 103.952,14.192 C104.010667,14.2400002 104.056,14.301333 104.088,14.376 L106.616,20.856 C106.637333,20.9200003 106.674666,20.9546666 106.728,20.96 C106.768,20.964 106.799,20.9455002 106.821,20.9045002 L109.352,14.376 C109.384,14.301333 109.429333,14.2400002 109.488,14.192 C109.546667,14.1439998 109.608,14.12 109.672,14.12 L111.304,14.12 C111.368,14.12 111.429333,14.1439998 111.488,14.192 C111.546667,14.2400002 111.586667,14.301333 111.608,14.376 L114.792,24.648 C114.824,24.7440005 114.816,24.8266663 114.768,24.896 C114.72,24.9653337 114.648,25 114.552,25 L112.616,25 C112.541333,25 112.48,24.9813335 112.432,24.944 C112.384,24.9066665 112.349333,24.850667 112.328,24.776 L110.264,18.104 C110.253333,18.0399997 110.218667,18.008 110.16,18.008 C110.101333,18.008 110.061333,18.0399997 110.04,18.104 L107.608,24.728 C107.576,24.8133338 107.530667,24.8799998 107.472,24.928 C107.413333,24.9760002 107.341334,25 107.256,25 L106.12,25 C106.034666,25 105.965334,24.9786669 105.912,24.936 C105.858666,24.8933331 105.816,24.8240005 105.784,24.728 L103.272,18.104 C103.250667,18.0399997 103.216,18.008 103.168,18.008 C103.12,18.008 103.085333,18.0399997 103.064,18.104 L100.952,24.776 C100.930667,24.850667 100.893334,24.9066665 100.84,24.944 C100.786666,24.9813335 100.722667,25 100.648,25 Z M123.896,20.984 C123.896,22.1786726 123.488004,23.1813293 122.672,23.992 C121.855996,24.8026707 120.834673,25.208 119.608,25.208 C118.391994,25.208 117.373337,24.8026707 116.552,23.992 C115.730663,23.1813293 115.32,22.1786726 115.32,20.984 C115.32,19.7893274 115.727996,18.7866707 116.544,17.976 C117.360004,17.1653293 118.381327,16.76 119.608,16.76 C120.834673,16.76 121.855996,17.1626626 122.672,17.968 C123.488004,18.7733374 123.896,19.7786606 123.896,20.984 Z M117.496,20.984 C117.496,21.6026698 117.703998,22.1306645 118.12,22.568 C118.536002,23.0053355 119.031997,23.224 119.608,23.224 C120.19467,23.224 120.693331,23.0053355 121.104,22.568 C121.514669,22.1306645 121.72,21.6026698 121.72,20.984 C121.72,20.3653302 121.514669,19.8373355 121.104,19.4 C120.693331,18.9626645 120.19467,18.744 119.608,18.744 C119.031997,18.744 118.536002,18.9626645 118.12,19.4 C117.703998,19.8373355 117.496,20.3653302 117.496,20.984 Z M133.848,20.984 C133.848,22.1680059 133.469337,23.1679959 132.712,23.984 C131.954663,24.8000041 131.021339,25.208 129.912,25.208 C129.527998,25.208 129.165335,25.141334 128.824,25.008 C128.482665,24.874666 128.120002,24.6533349 127.736,24.344 C127.650666,24.2799997 127.578667,24.2613332 127.52,24.288 C127.461333,24.3146668 127.432,24.3813328 127.432,24.488 L127.432,24.696 C127.432,24.7813338 127.402667,24.853333 127.344,24.912 C127.285333,24.970667 127.218667,25 127.144,25 L125.64,25 C125.565333,25 125.496,24.9680003 125.432,24.904 C125.368,24.8399997 125.336,24.770667 125.336,24.696 L125.336,14.424 C125.336,14.3386662 125.368,14.266667 125.432,14.208 C125.496,14.149333 125.565333,14.12 125.64,14.12 L127.224,14.12 C127.298667,14.12 127.365333,14.149333 127.424,14.208 C127.482667,14.266667 127.512,14.3386662 127.512,14.424 L127.512,17.352 C127.512,17.4586672 127.546666,17.5226666 127.616,17.544 C127.685334,17.5653334 127.773333,17.538667 127.88,17.464 C128.200002,17.2293322 128.535998,17.0533339 128.888,16.936 C129.240002,16.8186661 129.602665,16.76 129.976,16.76 C131.064005,16.76 131.98133,17.1679959 132.728,17.984 C133.47467,18.8000041 133.848,19.7999941 133.848,20.984 Z M127.448,20.984 C127.448,21.6026698 127.650665,22.1279978 128.056,22.56 C128.461335,22.9920022 128.95733,23.208 129.544,23.208 C130.13067,23.208 130.631998,22.9920022 131.048,22.56 C131.464002,22.1279978 131.672,21.6026698 131.672,20.984 C131.672,20.3653302 131.464002,19.8373355 131.048,19.4 C130.631998,18.9626645 130.13067,18.744 129.544,18.744 C128.967997,18.744 128.474669,18.9626645 128.064,19.4 C127.653331,19.8373355 127.448,20.3653302 127.448,20.984 Z M137.608,14.872 C137.608,15.2026683 137.488001,15.4879988 137.248,15.728 C137.007999,15.9680012 136.722668,16.088 136.392,16.088 C136.061332,16.088 135.776001,15.9680012 135.536,15.728 C135.295999,15.4879988 135.176,15.2026683 135.176,14.872 C135.176,14.5413317 135.295999,14.2560012 135.536,14.016 C135.776001,13.7759988 136.061332,13.656 136.392,13.656 C136.722668,13.656 137.007999,13.7759988 137.248,14.016 C137.488001,14.2560012 137.608,14.5413317 137.608,14.872 Z M137.16,25 L135.576,25 C135.501333,25 135.434667,24.970667 135.376,24.912 C135.317333,24.853333 135.288,24.7813338 135.288,24.696 L135.288,17.272 C135.288,17.1866662 135.317333,17.114667 135.376,17.056 C135.434667,16.997333 135.501333,16.968 135.576,16.968 L137.16,16.968 C137.245334,16.968 137.317333,16.997333 137.376,17.056 C137.434667,17.114667 137.464,17.1866662 137.464,17.272 L137.464,24.696 C137.464,24.770667 137.434667,24.8399997 137.376,24.904 C137.317333,24.968 137.245334,25 137.16,25 Z M142.184,25.08 C141.095995,25.08 140.330669,24.8693354 139.888,24.448 C139.445331,24.0266646 139.224,23.3040051 139.224,22.28 L139.224,14.424 C139.224,14.3386662 139.253333,14.266667 139.312,14.208 C139.370667,14.149333 139.437333,14.12 139.512,14.12 L141.096,14.12 C141.181334,14.12 141.253333,14.149333 141.312,14.208 C141.370667,14.266667 141.4,14.3386662 141.4,14.424 L141.4,22.328 C141.4,22.6053347 141.466666,22.8159993 141.6,22.96 C141.711112,23.0800006 141.864814,23.1500002 142.061111,23.17 L142.184,23.176 C142.269334,23.176 142.341333,23.205333 142.4,23.264 C142.458667,23.322667 142.488,23.3946662 142.488,23.48 L142.488,24.792 C142.488,24.866667 142.458667,24.933333 142.4,24.992 C142.341333,25.050667 142.269334,25.08 142.184,25.08 Z M151.144,22.856 C150.877332,23.5600035 150.389337,24.1279978 149.68,24.56 C148.970663,24.9920022 148.178671,25.208 147.304,25.208 C146.098661,25.208 145.104004,24.8133373 144.32,24.024 C143.535996,23.2346627 143.144,22.2320061 143.144,21.016 C143.144,19.7999939 143.543996,18.7866707 144.344,17.976 C145.144,17.1653293 146.141327,16.76 147.336,16.76 C148.520006,16.76 149.503996,17.1679959 150.288,17.984 C151.072004,18.8000041 151.464,19.8213272 151.464,21.048 C151.464,21.2293342 151.434667,21.3626662 151.376,21.448 C151.317333,21.5333338 151.224001,21.576 151.096,21.576 L145.592,21.576 C145.528,21.576 145.48,21.5946665 145.448,21.632 C145.416,21.6693335 145.405333,21.7199997 145.416,21.784 C145.469334,22.242669 145.679998,22.6213318 146.048,22.92 C146.416002,23.2186682 146.855997,23.368 147.368,23.368 C147.666668,23.368 147.946665,23.3093339 148.208,23.192 C148.417068,23.0981329 148.603946,22.9701339 148.76864,22.8080004 L148.888,22.68 C148.973334,22.5839995 149.056,22.5173335 149.136,22.48 C149.216,22.4426665 149.304,22.424 149.4,22.424 L150.872,22.424 C151.000001,22.424 151.088,22.4639996 151.136,22.544 C151.184,22.6240004 151.186667,22.7279994 151.144,22.856 Z M145.48,20.056 C145.458667,20.130667 145.458667,20.1866665 145.48,20.224 C145.501333,20.2613335 145.544,20.28 145.608,20.28 L148.984,20.28 C149.037334,20.28 149.077333,20.2666668 149.104,20.24 C149.130667,20.2133332 149.138667,20.1680003 149.128,20.104 C149.042666,19.6666645 148.829335,19.3066681 148.488,19.024 C148.146665,18.7413319 147.752002,18.6 147.304,18.6 C146.877331,18.6 146.493335,18.7359986 146.152,19.008 C145.810665,19.2800014 145.586667,19.6293312 145.48,20.056 Z M155,25 L153.336,25 C153.261333,25 153.194667,24.970667 153.136,24.912 C153.077333,24.853333 153.048,24.7813338 153.048,24.696 L153.048,14.424 C153.048,14.3386662 153.077333,14.266667 153.136,14.208 C153.194667,14.149333 153.261333,14.12 153.336,14.12 L158.376,14.12 C159.560006,14.12 160.50133,14.4453301 161.2,15.096 C161.89867,15.7466699 162.248,16.6213278 162.248,17.72 C162.248,18.786672 161.869337,19.6613299 161.112,20.344 C160.354663,21.0266701 159.405339,21.368 158.264,21.368 L155.592,21.368 C155.496,21.368 155.424,21.3946664 155.376,21.448 C155.328,21.5013336 155.304,21.5759995 155.304,21.672 L155.304,24.696 C155.304,24.770667 155.274667,24.8399997 155.216,24.904 C155.157333,24.9680003 155.085334,25 155,25 Z M155.576,19.512 L158.264,19.512 C158.754669,19.512 159.162665,19.3360018 159.488,18.984 C159.813335,18.6319982 159.976,18.2160024 159.976,17.736 C159.976,17.2453309 159.818668,16.837335 159.504,16.512 C159.189332,16.186665 158.776003,16.024 158.264,16.024 L155.576,16.024 C155.48,16.024 155.410667,16.0479998 155.368,16.096 C155.325333,16.1440002 155.304,16.2159995 155.304,16.312 L155.304,19.224 C155.304,19.3200005 155.325333,19.3919998 155.368,19.44 C155.410667,19.4880002 155.48,19.512 155.576,19.512 Z M169.7425,24.0874998 L169.688,24.136 C169.271998,24.5200019 168.861335,24.7946658 168.456,24.96 C168.050665,25.1253342 167.602669,25.208 167.112,25.208 C166.013328,25.208 165.08267,24.8000041 164.32,23.984 C163.55733,23.1679959 163.176,22.1680059 163.176,20.984 C163.176,19.7999941 163.562663,18.8000041 164.336,17.984 C165.109337,17.1679959 166.045328,16.76 167.144,16.76 C167.528002,16.76 167.887998,16.8239994 168.224,16.952 C168.492801,17.0544005 168.770133,17.2079993 169.055999,17.4127995 L169.272,17.576 C169.346667,17.6400003 169.416,17.6666667 169.48,17.656 C169.544,17.6453333 169.576,17.5920005 169.576,17.496 L169.576,17.256 C169.576,17.1706662 169.605333,17.1013336 169.664,17.048 C169.722667,16.9946664 169.789333,16.968 169.864,16.968 L171.368,16.968 C171.453334,16.968 171.525333,16.997333 171.584,17.056 C171.642667,17.114667 171.672,17.1866662 171.672,17.272 L171.672,22.568 C171.672,22.76 171.706666,22.9039995 171.776,23 C171.845334,23.0960005 171.949333,23.1493333 172.088,23.16 C172.162667,23.1706667 172.226666,23.1999998 172.28,23.248 C172.333334,23.2960002 172.36,23.3519997 172.36,23.416 L172.36,24.808 C172.36,24.882667 172.333334,24.9466664 172.28,25 C172.226666,25.0533336 172.162667,25.08 172.088,25.08 C171.575997,25.08 171.154668,25.0053341 170.824,24.856 C170.493332,24.7066659 170.237334,24.4773349 170.056,24.168 C170.002666,24.0826662 169.946667,24.0373334 169.888,24.032 C169.844,24.028 169.7955,24.0464998 169.7425,24.0874998 L169.7425,24.0874998 Z M165.368,20.984 C165.368,21.6026698 165.573331,22.1306645 165.984,22.568 C166.394669,23.0053355 166.89333,23.224 167.48,23.224 C168.06667,23.224 168.562665,23.0080022 168.968,22.576 C169.373335,22.1439978 169.576,21.6133365 169.576,20.984 C169.576,20.3546635 169.373335,19.8240022 168.968,19.392 C168.562665,18.9599978 168.06667,18.744 167.48,18.744 C166.89333,18.744 166.394669,18.9626645 165.984,19.4 C165.573331,19.8373355 165.368,20.3653302 165.368,20.984 Z M173.48,28.12 C173.405333,28.12 173.336,28.090667 173.272,28.032 C173.208,27.973333 173.176,27.9013338 173.176,27.816 L173.176,26.52 C173.176,26.445333 173.205333,26.378667 173.264,26.32 C173.322667,26.261333 173.394666,26.232 173.48,26.232 C174.045336,26.232 174.543998,26.0906681 174.976,25.808 C175.408002,25.5253319 175.677333,25.154669 175.784,24.696 C175.816,24.5893328 175.826667,24.4880005 175.816,24.392 C175.805333,24.2959995 175.773334,24.1840006 175.72,24.056 L172.776,17.4 C172.733333,17.2826661 172.738666,17.1813338 172.792,17.096 C172.845334,17.0106662 172.925333,16.968 173.032,16.968 L174.616,16.968 C174.68,16.968 174.738666,16.9919998 174.792,17.04 C174.845334,17.0880002 174.893333,17.1599995 174.936,17.256 L176.776,21.512 C176.850667,21.6826675 176.930666,21.7653334 177.016,21.76 C177.101334,21.7546666 177.181333,21.6666675 177.256,21.496 L179.016,17.224 C179.048,17.1279995 179.088,17.0613335 179.136,17.024 C179.184,16.9866665 179.245333,16.968 179.32,16.968 L180.84,16.968 C180.946667,16.968 181.029333,17.0079996 181.088,17.088 C181.146667,17.1680004 181.154667,17.2559995 181.112,17.352 L178.088,24.536 C177.522664,25.86934 176.89867,26.7999974 176.216,27.328 C175.53333,27.8560026 174.621339,28.12 173.48,28.12 Z M185.032,25.08 C183.943995,25.08 183.178669,24.8693354 182.736,24.448 C182.293331,24.0266646 182.072,23.3040051 182.072,22.28 L182.072,14.424 C182.072,14.3386662 182.101333,14.266667 182.16,14.208 C182.218667,14.149333 182.285333,14.12 182.36,14.12 L183.944,14.12 C184.029334,14.12 184.101333,14.149333 184.16,14.208 C184.218667,14.266667 184.248,14.3386662 184.248,14.424 L184.248,22.328 C184.248,22.6053347 184.314666,22.8159993 184.448,22.96 C184.559112,23.0800006 184.712814,23.1500002 184.909111,23.17 L185.032,23.176 C185.117334,23.176 185.189333,23.205333 185.248,23.264 C185.306667,23.322667 185.336,23.3946662 185.336,23.48 L185.336,24.792 C185.336,24.866667 185.306667,24.933333 185.248,24.992 C185.189333,25.050667 185.117334,25.08 185.032,25.08 Z M189.288,25.08 C188.199995,25.08 187.434669,24.8693354 186.992,24.448 C186.549331,24.0266646 186.328,23.3040051 186.328,22.28 L186.328,14.424 C186.328,14.3386662 186.357333,14.266667 186.416,14.208 C186.474667,14.149333 186.541333,14.12 186.616,14.12 L188.2,14.12 C188.285334,14.12 188.357333,14.149333 188.416,14.208 C188.474667,14.266667 188.504,14.3386662 188.504,14.424 L188.504,22.328 C188.504,22.6053347 188.570666,22.8159993 188.704,22.96 C188.815112,23.0800006 188.968814,23.1500002 189.165111,23.17 L189.288,23.176 C189.373334,23.176 189.445333,23.205333 189.504,23.264 C189.562667,23.322667 189.592,23.3946662 189.592,23.48 L189.592,24.792 C189.592,24.866667 189.562667,24.933333 189.504,24.992 C189.445333,25.050667 189.373334,25.08 189.288,25.08 Z M194.216,16.76 C194.600002,16.76 194.959998,16.8239994 195.296,16.952 C195.564801,17.0544005 195.842133,17.2079993 196.127999,17.4127995 L196.344,17.576 C196.418667,17.6400003 196.488,17.6666667 196.552,17.656 C196.616,17.6453333 196.648,17.5920005 196.648,17.496 L196.648,17.256 C196.648,17.1706662 196.677333,17.1013336 196.736,17.048 C196.794667,16.9946664 196.861333,16.968 196.936,16.968 L198.44,16.968 C198.525334,16.968 198.597333,16.997333 198.656,17.056 C198.714667,17.114667 198.744,17.1866662 198.744,17.272 L198.744,22.568 C198.744,22.76 198.778666,22.9039995 198.848,23 C198.917334,23.0960005 199.021333,23.1493333 199.16,23.16 C199.234667,23.1706667 199.298666,23.1999998 199.352,23.248 C199.405334,23.2960002 199.432,23.3519997 199.432,23.416 L199.432,24.808 C199.432,24.882667 199.405334,24.9466664 199.352,25 C199.298666,25.0533336 199.234667,25.08 199.16,25.08 C198.647997,25.08 198.226668,25.0053341 197.896,24.856 C197.565332,24.7066659 197.309334,24.4773349 197.128,24.168 C197.074666,24.0826662 197.018667,24.0373334 196.96,24.032 C196.916,24.028 196.8675,24.0464998 196.8145,24.0874998 L196.76,24.136 C196.343998,24.5200019 195.933335,24.7946658 195.528,24.96 C195.122665,25.1253342 194.674669,25.208 194.184,25.208 C193.085328,25.208 192.15467,24.8000041 191.392,23.984 C190.62933,23.1679959 190.248,22.1680059 190.248,20.984 C190.248,19.7999941 190.634663,18.8000041 191.408,17.984 C192.181337,17.1679959 193.117328,16.76 194.216,16.76 Z M194.552,18.744 C193.96533,18.744 193.466669,18.9626645 193.056,19.4 C192.645331,19.8373355 192.44,20.3653302 192.44,20.984 C192.44,21.6026698 192.645331,22.1306645 193.056,22.568 C193.466669,23.0053355 193.96533,23.224 194.552,23.224 C195.13867,23.224 195.634665,23.0080022 196.04,22.576 C196.445335,22.1439978 196.648,21.6133365 196.648,20.984 C196.648,20.3546635 196.445335,19.8240022 196.04,19.392 C195.634665,18.9599978 195.13867,18.744 194.552,18.744 Z" id="MaksaMobilePaylla" fill="#FFFFFF" fill-rule="nonzero"></path>
                <g id="Logo-/-monochrome-/-symbol-/-white" transform="translate(18.599998, 9.000000)" fill="#FFFFFF">
                    <g id="Logo_monochrome_lines" transform="translate(0.647059, 0.323529)">
                        <path d="M10.0294118,14.1616609 C11.8215541,13.6154874 13.3377365,13.3408642 14.5779589,13.3377914 C16.6283927,13.3327111 18.3475044,13.7397219 19.7352941,14.5588235 L19.7352941,8.60222539 C18.3404585,7.87995624 16.7644391,7.49440574 15.0072358,7.44557389 C13.2500325,7.39674205 11.5907579,7.75460564 10.0294118,8.51916468 L10.0294118,14.1616609 Z" id="Path-4"></path>
                        <path d="M7.11764706,7.67626863 L9.32948248,12.9411765 L9.32948248,7.89545711 C10.4948405,7.27141609 11.7285529,6.87149072 13.0306196,6.69568101 C14.3326863,6.5198713 15.8126758,6.54821672 17.4705882,6.78071728 L16.267627,3.90650603 C14.5248603,3.79396102 12.864664,4.07473154 11.2870382,4.74881758 C9.7094123,5.42290362 8.31961526,6.39872064 7.11764706,7.67626863 Z" id="Path-4"></path>
                        <path d="M13.9117647,5.51631313 C13.9117647,5.00829462 13.9117647,4.24626686 13.9117647,3.23022985 C13.9117647,2.16094461 13.050212,1.29411765 11.9874328,1.29411765 L5.48315539,1.29411765 C4.42037625,1.29411765 3.55882353,2.16094461 3.55882353,3.23022985 L3.55882353,18.4462407 C3.55882353,19.515526 4.42037625,20.3823529 5.48315539,20.3823529 L11.9874328,20.3823529 C13.050212,20.3823529 13.9117647,19.515526 13.9117647,18.4462407 C13.9117647,17.4826081 13.9117647,16.8538027 13.9117647,16.5598246 C13.6166079,16.4172834 13.3997009,16.315314 13.2610437,16.2539166 C13.1146147,16.1890777 12.9038924,16.1016925 12.6288768,15.9917611 C12.6288768,16.3705593 12.6288768,17.1887191 12.6288768,18.4462407 C12.6288768,18.8026692 12.3416926,19.0916115 11.9874328,19.0916115 L5.48315539,19.0916115 C5.12889568,19.0916115 4.84171144,18.8026692 4.84171144,18.4462407 L4.84171144,3.23022985 C4.84171144,2.87380144 5.12889568,2.58485912 5.48315539,2.58485912 L11.9874328,2.58485912 C12.3416926,2.58485912 12.6288768,2.87380144 12.6288768,3.23022985 L12.6288768,5.54093026 C12.9305556,5.52189711 13.160039,5.51315357 13.3173272,5.51469965 C13.4746154,5.51624573 13.6727612,5.51678356 13.9117647,5.51631313 Z" id="Path-5" fill-rule="nonzero" transform="translate(8.735294, 10.838235) rotate(-22.400000) translate(-8.735294, -10.838235) "></path>
                    </g>
                </g>
            </g>
        </g>
    </g>
</svg>