<?xml version="1.0" encoding="utf-8"?>
<!-- Generator: Adobe Illustrator 27.2.0, SVG Export Plug-In . SVG Version: 6.00 Build 0)  -->
<svg version="1.1" id="Layer_1" xmlns="http://www.w3.org/2000/svg" xmlns:xlink="http://www.w3.org/1999/xlink" x="0px" y="0px"
	 viewBox="0 0 1033.4 438.23" style="enable-background:new 0 0 1033.4 438.23;" xml:space="preserve">
<style type="text/css">
	.st0{fill:#F24594;}
	.st1{fill:#FFFFFF;}
</style>
<g>
	<path class="st0" d="M529.11,317.38c0.07-1.03,0.21-2.06,0.21-3.08c0.02-9.41-0.04-18.83,0.07-28.24c0.01-1.21,0.52-2.72,1.34-3.57
		c14.25-14.62,22.95-32.03,25.29-52.22c3.25-28.1-4.81-52.78-24.22-73.56c-1.68-1.8-2.57-3.56-2.53-6.1
		c0.15-8.77,0.06-17.55,0.06-26.33c0-3.44,0-3.44,3.36-3.44c25.01,0,50.03,0,75.04,0c110.6,0,221.2,0,331.8,0
		c3.79,0,3.79,0,3.79,3.75c0,9.01-0.03,18.03,0.03,27.04c0.01,1.72-0.47,2.97-1.69,4.23c-13.69,14.02-22.17,30.71-24.77,50.14
		c-3.93,29.34,4.52,54.76,24.82,76.32c0.87,0.93,1.53,2.47,1.55,3.73c0.13,9.41,0.07,18.83,0.08,28.24c0,1.03,0.11,2.06,0.17,3.1
		C805.37,317.38,667.24,317.38,529.11,317.38z M636.47,242.93c1.14,0,2.08,0,3.02,0c18.46,0,36.93-0.03,55.39,0.04
		c2.01,0.01,2.98-0.48,2.83-2.66c-0.39-5.55-0.18-11.19-1.11-16.65c-1.82-10.75-6.51-20.17-15.2-27.16
		c-8.3-6.67-17.98-8.96-28.46-8.65c-12.87,0.39-23.58,5.41-31.77,15.26c-9.13,10.99-11.97,23.83-10.36,37.86
		c1.15,10.01,5.11,18.67,12.07,25.97c13.94,14.63,38.86,17.07,56.04,8.59c5.73-2.83,10.55-6.81,14.67-12.14
		c-4.48-3.96-8.87-7.77-13.16-11.68c-1.36-1.24-2.34-1.18-3.65,0.03c-6.41,5.95-14.03,8.17-22.7,7.51
		C645.59,258.6,638.02,251.92,636.47,242.93z M742.89,187.87c-0.64,0-1.28,0.01-1.92,0c-13.45-0.29-29.86,7.93-31.03,26.14
		c-0.57,8.87,1.94,16.37,9.2,21.87c4.84,3.67,10.47,5.7,16.2,7.52c5.16,1.64,10.33,3.31,15.34,5.35c3.12,1.27,4.02,3.27,3.61,6.04
		c-0.41,2.79-2.49,3.88-4.9,4.61c-3.54,1.07-7.1,0.72-10.64,0.06c-7.43-1.39-14.08-4.62-20.23-8.89c-1.53-1.06-2.42-0.99-3.44,0.63
		c-2.78,4.47-5.65,8.89-8.56,13.27c-0.96,1.45-1.03,2.42,0.53,3.54c14.39,10.28,30.26,14.67,47.74,11.16
		c18.45-3.71,25.4-17.7,22.44-34.04c-1.34-7.38-6.46-12.3-12.94-15.39c-6.38-3.05-13.18-5.22-19.74-7.91
		c-3.08-1.27-6.27-2.51-8.98-4.38c-3.5-2.41-2.79-7.07,1.27-8.38c2.56-0.83,5.51-1.11,8.18-0.8c6.83,0.79,13.04,3.59,18.95,7.01
		c1.56,0.9,2.44,0.89,3.36-0.88c2.46-4.74,5.04-9.43,7.72-14.05c1.03-1.77,0.55-2.61-1.06-3.57
		C764.4,191.08,754.16,187.71,742.89,187.87z M823.45,187.66c-2.7,0.23-5.42,0.28-8.08,0.72c-13.93,2.32-26.31,12.48-24.67,30.89
		c0.6,6.78,3.46,12.15,8.75,16.33c4.85,3.84,10.56,5.87,16.35,7.76c5.23,1.7,10.46,3.42,15.58,5.41c2.56,1,4.02,3.09,3.52,6.1
		c-0.47,2.82-2.55,4.21-4.98,4.47c-3.51,0.37-7.16,0.56-10.63,0.01c-7.46-1.17-14.09-4.56-20.25-8.82c-1.25-0.86-2.12-1.18-3.1,0.38
		c-2.97,4.73-6.02,9.41-9.08,14.08c-0.78,1.19-0.58,1.97,0.55,2.78c15.01,10.83,31.54,15.35,49.76,10.93
		c17.52-4.24,23.52-18.03,20.64-33.73c-1.41-7.67-6.92-12.55-13.65-15.67c-6.49-3.01-13.36-5.21-20.03-7.87
		c-2.58-1.03-5.12-2.22-7.54-3.59c-1.74-0.98-2.78-2.6-2.48-4.8c0.31-2.27,1.73-3.75,3.76-4.18c2.53-0.53,5.22-0.92,7.76-0.63
		c6.68,0.77,12.72,3.55,18.56,6.74c2.64,1.44,2.64,1.46,4.12-1.24c2.45-4.48,4.83-9,7.38-13.42c0.95-1.64,0.66-2.48-0.91-3.43
		C845.15,191.04,834.81,187.76,823.45,187.66z M597.94,157.7c-7.92,0-15.42,0.09-22.91-0.05c-2.38-0.05-2.98,0.79-2.96,3.02
		c0.09,10.29,0.04,20.57,0.04,30.86c0,28.31,0,56.62,0,84.93c0,3.33,0.02,3.33,3.31,3.34c6.47,0,12.94,0,19.41,0
		c3.11,0,3.11-0.01,3.11-3.13c0-38.6,0-77.19,0-115.79C597.94,159.94,597.94,159,597.94,157.7z M883.33,141.44c0-0.04,0-0.08,0-0.12
		c-4.31,0-8.62,0.09-12.92-0.05c-1.45-0.05-1.88,0.49-1.88,1.73c-0.03,8.76-0.08,17.53,0,26.29c0.01,0.6,0.98,1.71,1.53,1.72
		c8.76,0.26,17.53,0.38,26.3,0.55c1.31,0.03,1.83-0.5,1.84-1.83c0.12-8.67,0.26-17.35,0.48-26.02c0.05-1.84-0.74-2.32-2.42-2.3
		C891.95,141.49,887.64,141.44,883.33,141.44z M869.47,215.64c-0.02,0-0.05,0-0.07,0c0,4.22,0.06,8.45-0.03,12.67
		c-0.04,1.67,0.52,2.22,2.19,2.2c5.03-0.08,10.06-0.07,15.09-0.01c3.42,0.05,6.84,0.27,10.26,0.38c1.21,0.04,2.2-0.17,2.23-1.77
		c0.13-8.75,0.29-17.51,0.46-26.26c0.03-1.35-0.41-2.04-1.91-2.06c-8.61-0.1-17.22-0.23-25.83-0.43c-1.78-0.04-2.43,0.66-2.41,2.37
		C869.5,207.03,869.47,211.33,869.47,215.64z M883.01,289.83c0,0.01,0,0.01,0,0.02c4.31,0,8.62-0.05,12.92,0.03
		c1.54,0.03,2.19-0.54,2.19-2.05c0-8.68,0.05-17.36-0.02-26.04c0-0.54-0.93-1.52-1.45-1.53c-8.76-0.25-17.53-0.37-26.29-0.55
		c-1.24-0.02-1.91,0.33-1.93,1.74c-0.12,8.67-0.27,17.34-0.47,26.01c-0.04,1.73,0.59,2.43,2.36,2.4
		C874.55,289.78,878.78,289.83,883.01,289.83z"/>
	<path class="st0" d="M325.47,240.68c0.64-0.56,1.31-1.08,1.9-1.69c14.41-14.93,28.84-29.85,43.19-44.84
		c1.73-1.81,3.47-2.74,6.04-2.58c3.5,0.22,7.02,0.06,11.1,0.06c-0.82,0.93-1.32,1.56-1.88,2.13c-11.04,11.2-22.07,22.41-33.17,33.55
		c-1.53,1.53-1.74,2.51-0.33,4.35c11.04,14.36,21.96,28.81,32.91,43.24c0.51,0.68,0.99,1.38,1.81,2.52c-4.79,0-9.06,0.08-13.33-0.08
		c-0.75-0.03-1.61-0.96-2.16-1.67c-9.13-11.81-18.21-23.64-27.31-35.47c-0.52-0.68-1.12-1.3-1.84-2.12
		c-0.9,0.83-1.67,1.49-2.39,2.21c-4.46,4.46-8.86,8.98-13.38,13.38c-1.42,1.38-2.08,2.83-2.04,4.83c0.11,5.5-0.02,11.01,0.07,16.51
		c0.03,1.87-0.58,2.59-2.48,2.49c-2.39-0.12-4.79-0.07-7.19-0.02c-1.41,0.03-2.11-0.49-2.01-1.95c0.03-0.48,0-0.96,0-1.44
		c0-37.49,0-74.99,0-112.48c0-3.42,0-3.43,3.39-3.43c1.92,0,3.84,0.09,5.75-0.03c1.83-0.11,2.61,0.5,2.53,2.43
		c-0.12,3.11-0.03,6.22-0.03,9.33c0,22.42,0,44.83,0.01,67.25c0,1.08,0.1,2.15,0.15,3.23C325.01,240.49,325.24,240.58,325.47,240.68
		z"/>
	<path class="st0" d="M460.68,263.96c-6.77,7.62-14.63,12.85-24.45,14.6c-12.68,2.27-24.71,0.73-35.26-7.27
		c-9.89-7.5-15.12-17.64-16.51-29.9c-1.39-12.23,1.07-23.52,8.32-33.52c7.36-10.16,17.4-15.66,30.07-16.23
		c21.76-0.98,35.93,13.2,39.8,32.57c0.8,4.03,0.68,8.23,1.11,12.34c0.25,2.39-0.57,3.16-3.05,3.14c-16.63-0.1-33.25-0.05-49.88-0.05
		c-4,0-7.99,0.07-11.99-0.03c-1.87-0.04-2.59,0.52-2.34,2.48c1.8,13.62,10.99,24.45,24.66,26.65c11.77,1.9,21.93-1.58,30.51-9.73
		c1.32-1.26,2.22-1.43,3.55-0.06C456.85,260.66,458.71,262.17,460.68,263.96z M451.74,230.82c-1.2-10.48-4.34-19.74-13.53-25.38
		c-9.28-5.7-19.07-5.56-28.2,0.44c-8.77,5.76-12.58,14.54-13.72,24.94C414.9,230.82,433.06,230.82,451.74,230.82z"/>
	<path class="st0" d="M128.4,224.24c0-17.07,0-34.14,0-51.21c0-3.33,0-3.34-3.45-3.34c-10.71,0-21.41-0.05-32.12,0.04
		c-2.13,0.02-3.12-0.49-2.9-2.79c0.17-1.82,0.15-3.68,0-5.5c-0.18-2.16,0.54-2.93,2.81-2.9c8.47,0.12,16.94,0.05,25.41,0.05
		c19.5,0,38.99,0.04,58.49-0.05c2.38-0.01,3.39,0.57,3.12,3.06c-0.19,1.81-0.14,3.67-0.01,5.5c0.14,1.96-0.55,2.64-2.57,2.62
		c-10.55-0.08-21.09-0.05-31.64-0.03c-4.71,0.01-4.61-0.63-4.61,4.72c0.01,33.82,0,67.64,0,101.46c0,3.44,0,3.44-3.37,3.44
		c-2.16,0-4.32-0.12-6.47,0.03c-2.11,0.15-2.75-0.6-2.74-2.71c0.08-13.8,0.04-27.6,0.04-41.4
		C128.4,231.57,128.4,227.91,128.4,224.24z"/>
	<path class="st0" d="M289.75,214.09c-1.64-1.47-3.5-3.33-5.55-4.95c-18.92-14.95-45.34-5.05-49.82,18.63
		c-2.2,11.65,0.02,22.27,8.1,31.14c11.58,12.72,30.72,13.36,44.21,1.76c1.15-0.99,2.16-2.16,3.39-3.02c0.54-0.38,1.79-0.53,2.2-0.18
		c2.18,1.84,4.19,3.87,6.43,6.01c-5.37,6.07-11.33,10.91-18.84,13.46c-26.04,8.85-52.57-5.7-57.76-32.78
		c-4.65-24.25,10.16-47.05,33.86-51.73c15.59-3.08,29.41,1.06,40.83,12.41c0.84,0.84,1.31,1.66,0.25,2.63
		C294.71,209.63,292.34,211.76,289.75,214.09z"/>
	<path class="st0" d="M528.37,266.23c0,3.06,0.1,5.91-0.07,8.75c-0.04,0.65-0.88,1.53-1.56,1.82c-7.77,3.31-15.76,3.83-23.78,1.14
		c-7.67-2.57-11.62-8.36-12.89-16.1c-0.4-2.42-0.49-4.91-0.5-7.37c-0.04-16.35-0.02-32.7-0.02-49.05c0-3.19-0.01-3.19-3.3-3.19
		c-2.24,0-4.47-0.04-6.71,0.01c-1.43,0.04-2.03-0.54-1.99-1.98c0.06-2.23,0.06-4.47,0-6.7c-0.04-1.46,0.61-1.99,2.02-1.95
		c2.08,0.06,4.15,0.01,6.23,0.01c3.74-0.01,3.74-0.01,3.74-3.62c0-5.74,0.07-11.49-0.04-17.23c-0.04-2,0.64-2.7,2.62-2.58
		c2.23,0.14,4.48,0.15,6.71,0c2.06-0.14,2.82,0.52,2.77,2.68c-0.13,5.74-0.05,11.48-0.04,17.23c0,3.52,0.01,3.53,3.64,3.53
		c6.79,0.01,13.58,0.09,20.37-0.05c2.37-0.05,3.14,0.76,2.92,3.02c-0.15,1.58-0.15,3.2,0,4.78c0.2,2.16-0.54,2.94-2.81,2.89
		c-7.19-0.13-14.38,0.01-21.57-0.09c-2-0.03-2.6,0.62-2.59,2.59c0.06,16.91-0.01,33.82,0.06,50.72c0.03,8.01,5.21,13.12,13.27,13.23
		c2.22,0.03,4.48-0.11,6.65-0.51C523.68,267.83,525.77,267.01,528.37,266.23z"/>
	<path class="st0" d="M195.05,231.71c0-14.91,0.06-29.82-0.06-44.72c-0.02-2.46,0.72-3.25,3.13-3.06c2.46,0.19,4.95,0.09,7.42,0.03
		c1.41-0.03,2.1,0.5,2,1.95c-0.04,0.63-0.01,1.27-0.01,1.91c0,29.42,0,58.83,0,88.25c0,3.24,0,3.25-3.31,3.25
		c-2.08,0-4.16-0.13-6.23,0.04c-2.28,0.19-3.02-0.58-3-2.93C195.1,261.52,195.05,246.62,195.05,231.71z"/>
	<path class="st0" d="M195.05,165.11c0-6.51,0-6.51,6.5-6.51c5.99,0,5.99,0,5.99,6.07c0,1.75,0.15,3.52-0.08,5.24
		c-0.09,0.64-1.04,1.63-1.64,1.66c-3.02,0.17-6.06,0.17-9.08,0c-0.59-0.03-1.51-1.03-1.61-1.69
		C194.89,168.32,195.05,166.7,195.05,165.11z"/>
	<path class="st1" d="M636.47,242.93c1.55,9,9.12,15.68,17.6,16.32c8.67,0.66,16.29-1.56,22.7-7.51c1.31-1.22,2.3-1.27,3.65-0.03
		c4.29,3.91,8.68,7.72,13.16,11.68c-4.12,5.34-8.94,9.31-14.67,12.14c-17.18,8.48-42.09,6.04-56.04-8.59
		c-6.96-7.3-10.92-15.96-12.07-25.97c-1.61-14.02,1.23-26.87,10.36-37.86c8.19-9.86,18.9-14.87,31.77-15.26
		c10.48-0.32,20.16,1.97,28.46,8.65c8.69,6.99,13.38,16.4,15.2,27.16c0.92,5.46,0.72,11.1,1.11,16.65c0.15,2.17-0.82,2.66-2.83,2.66
		c-18.46-0.06-36.93-0.04-55.39-0.04C638.55,242.93,637.62,242.93,636.47,242.93z M635.91,226.64c11.95,0,23.42,0,34.89,0
		c1.34,0,1.62-0.74,1.36-1.89c-1.03-4.51-2.75-8.68-6.35-11.78c-5.43-4.69-11.7-5.34-18.14-2.83
		C640.47,212.93,637.6,219.15,635.91,226.64z"/>
	<path class="st1" d="M742.89,187.87c11.26-0.16,21.5,3.22,31.09,8.92c1.61,0.96,2.09,1.79,1.06,3.57
		c-2.68,4.62-5.26,9.31-7.72,14.05c-0.92,1.77-1.8,1.78-3.36,0.88c-5.91-3.42-12.12-6.22-18.95-7.01c-2.68-0.31-5.62-0.02-8.18,0.8
		c-4.06,1.31-4.77,5.97-1.27,8.38c2.71,1.87,5.9,3.12,8.98,4.38c6.56,2.69,13.36,4.86,19.74,7.91c6.48,3.09,11.6,8.01,12.94,15.39
		c2.96,16.34-3.99,30.33-22.44,34.04c-17.48,3.51-33.35-0.88-47.74-11.16c-1.56-1.11-1.49-2.09-0.53-3.54
		c2.92-4.38,5.78-8.8,8.56-13.27c1.01-1.63,1.9-1.69,3.44-0.63c6.16,4.27,12.8,7.5,20.23,8.89c3.54,0.66,7.1,1.01,10.64-0.06
		c2.41-0.73,4.49-1.82,4.9-4.61c0.4-2.77-0.49-4.76-3.61-6.04c-5.01-2.04-10.18-3.71-15.34-5.35c-5.73-1.82-11.36-3.85-16.2-7.52
		c-7.26-5.51-9.77-13-9.2-21.87c1.17-18.22,17.58-26.43,31.03-26.14C741.62,187.88,742.26,187.87,742.89,187.87z"/>
	<path class="st1" d="M823.45,187.66c11.35,0.1,21.7,3.38,31.32,9.24c1.57,0.96,1.86,1.79,0.91,3.43
		c-2.55,4.42-4.93,8.94-7.38,13.42c-1.48,2.71-1.48,2.68-4.12,1.24c-5.84-3.19-11.89-5.97-18.56-6.74c-2.54-0.29-5.23,0.1-7.76,0.63
		c-2.03,0.42-3.45,1.91-3.76,4.18c-0.3,2.2,0.74,3.81,2.48,4.8c2.42,1.37,4.96,2.56,7.54,3.59c6.66,2.66,13.53,4.86,20.03,7.87
		c6.73,3.12,12.25,8,13.65,15.67c2.88,15.7-3.12,29.48-20.64,33.73c-18.21,4.41-34.75-0.1-49.76-10.93
		c-1.13-0.82-1.33-1.59-0.55-2.78c3.07-4.67,6.11-9.35,9.08-14.08c0.98-1.56,1.85-1.24,3.1-0.38c6.17,4.27,12.8,7.65,20.25,8.82
		c3.46,0.54,7.12,0.36,10.63-0.01c2.42-0.25,4.51-1.64,4.98-4.47c0.5-3.01-0.96-5.11-3.52-6.1c-5.12-1.99-10.35-3.71-15.58-5.41
		c-5.79-1.89-11.5-3.92-16.35-7.76c-5.28-4.18-8.14-9.55-8.75-16.33c-1.64-18.41,10.75-28.57,24.67-30.89
		C818.03,187.94,820.76,187.89,823.45,187.66z"/>
	<path class="st1" d="M597.94,157.7c0,1.3,0,2.24,0,3.17c0,38.6,0,77.19,0,115.79c0,3.12-0.01,3.13-3.11,3.13
		c-6.47,0-12.94,0-19.41,0c-3.29,0-3.31-0.01-3.31-3.34c-0.01-28.31,0-56.62,0-84.93c0-10.29,0.05-20.57-0.04-30.86
		c-0.02-2.23,0.58-3.07,2.96-3.02C582.52,157.79,590.02,157.7,597.94,157.7z"/>
	<path class="st1" d="M883.33,141.44c4.31,0,8.62,0.05,12.93-0.02c1.68-0.03,2.47,0.45,2.42,2.3c-0.22,8.67-0.36,17.34-0.48,26.02
		c-0.02,1.34-0.54,1.86-1.84,1.83c-8.77-0.17-17.53-0.29-26.3-0.55c-0.55-0.02-1.53-1.12-1.53-1.72c-0.08-8.76-0.03-17.53,0-26.29
		c0-1.24,0.43-1.78,1.88-1.73c4.3,0.13,8.61,0.05,12.92,0.05C883.33,141.36,883.33,141.4,883.33,141.44z"/>
	<path class="st1" d="M869.47,215.64c0-4.3,0.03-8.61-0.02-12.91c-0.02-1.71,0.63-2.41,2.41-2.37c8.61,0.2,17.22,0.33,25.83,0.43
		c1.5,0.02,1.94,0.71,1.91,2.06c-0.17,8.75-0.34,17.51-0.46,26.26c-0.02,1.6-1.02,1.81-2.23,1.77c-3.42-0.11-6.84-0.33-10.26-0.38
		c-5.03-0.07-10.06-0.07-15.09,0.01c-1.67,0.03-2.23-0.53-2.19-2.2c0.09-4.22,0.03-8.45,0.03-12.67
		C869.43,215.64,869.45,215.64,869.47,215.64z"/>
	<path class="st1" d="M883.01,289.83c-4.23,0-8.46-0.05-12.68,0.02c-1.77,0.03-2.4-0.67-2.36-2.4c0.2-8.67,0.35-17.34,0.47-26.01
		c0.02-1.41,0.69-1.77,1.93-1.74c8.76,0.17,17.53,0.29,26.29,0.55c0.52,0.01,1.44,0.99,1.45,1.53c0.08,8.68,0.02,17.36,0.02,26.04
		c0,1.52-0.66,2.08-2.19,2.05c-4.31-0.08-8.62-0.03-12.92-0.03C883.01,289.84,883.01,289.84,883.01,289.83z"/>
	<path class="st0" d="M635.91,226.64c1.7-7.49,4.56-13.71,11.76-16.51c6.44-2.51,12.71-1.86,18.14,2.83
		c3.59,3.1,5.31,7.27,6.35,11.78c0.26,1.15-0.01,1.89-1.36,1.89C659.33,226.64,647.85,226.64,635.91,226.64z"/>
</g>
</svg>
