<svg xmlns="http://www.w3.org/2000/svg" width="70" height="69" viewBox="0 0 70 69">
  <defs>
    <linearGradient id="a" x1="48.743%" x2="52.403%" y1="76.002%" y2="-.583%">
      <stop stop-color="#504678" offset="0%" />
      <stop stop-color="#504678" stop-opacity=".616" offset="30.2%" />
      <stop stop-color="#504678" stop-opacity=".283" offset="60.8%" />
      <stop stop-color="#504678" stop-opacity=".076" offset="85.2%" />
      <stop stop-color="#504678" stop-opacity="0" offset="100%" />
    </linearGradient>
    <linearGradient id="b" x1="13.702%" x2="57.382%" y1="66.341%" y2="41.255%">
      <stop stop-color="#504678" offset="0%" />
      <stop stop-color="#504678" stop-opacity=".872" offset="17.9%" />
      <stop stop-color="#504678" stop-opacity=".536" offset="52.6%" />
      <stop stop-color="#504678" stop-opacity="0" offset="100%" />
    </linearGradient>
    <linearGradient id="c" x1="47.724%" x2="45.261%" y1="34.971%" y2="18.375%">
      <stop stop-color="#504678" offset="0%" />
      <stop stop-color="#504678" stop-opacity=".332" offset="64.3%" />
      <stop stop-color="#504678" stop-opacity="0" offset="100%" />
    </linearGradient>
  </defs>
  <g fill="none">
    <path fill="#5A78FF"
      d="M25.965,68.979 C23.605482,68.979138 21.4780237,67.5584647 20.574,65.379 L0.447,16.791 C-0.784372392,13.8180512 0.627208604,10.4097524 3.6,9.178 L24.681,0.447 C26.108502,-0.144569284 27.712562,-0.144702299 29.1401622,0.446630228 C30.5677623,1.03796276 31.7019083,2.17230013 32.293,3.6 L52.42,52.19 C53.6493734,55.1621201 52.2381352,58.5682483 49.267,59.8 L28.186,68.535 C27.482039,68.8275195 26.7273178,68.9783958 25.965,68.979 Z M26.911,3.138 C26.5577169,3.13858035 26.2080265,3.20892623 25.882,3.345 L4.8,12.076 C4.14100756,12.3489652 3.61746865,12.8725747 3.34459229,13.531604 C3.07171593,14.1906332 3.07186259,14.9310789 3.345,15.59 L23.472,64.181 C24.0417254,65.5520026 25.6135732,66.2032862 26.986,65.637 L48.067,56.9 L48.067,56.9 C48.7259924,56.6270348 49.2495313,56.1034253 49.5224077,55.444396 C49.7952841,54.7853668 49.7951374,54.0449211 49.522,53.386 L29.395,4.8 C28.9783815,3.79538976 27.9985704,3.13981564 26.911,3.138 Z" />
    <rect width="3.137" height="20.824" x="34.589" y="6.612" fill="url(#a)" opacity=".7"
      style="mix-blend-mode:multiply" transform="rotate(-22.5 36.157 17.024)" />
    <rect width="3.137" height="23.572" x="43.554" y="26.884" fill="url(#a)" opacity=".7"
      style="mix-blend-mode:multiply" transform="rotate(157.5 45.122 38.67)" />
    <path fill="#5A78FF"
      d="M44.523,35.724 C38.494,38.224 33.46,41.67 30.164,45.824 L21.666,25.3 C25.5423064,20.7964352 30.4762786,17.3259206 36.025,15.2 C42.054,12.7 48.145,11.49 53.32,12.195 L61.82,32.718 C55.8943454,32.2717289 49.950649,33.3046682 44.523,35.724 Z" />
    <g opacity=".4" style="mix-blend-mode:multiply" transform="translate(21 11)">
      <path fill="url(#b)"
        d="M23.523,24.724 C17.494,27.224 12.46,30.67 9.164,34.824 L0.666,14.3 C4.54230641,9.79643522 9.47627864,6.32592059 15.025,4.2 C21.054,1.7 27.145,0.49 32.32,1.195 L40.82,21.718 C34.8943454,21.2717289 28.950649,22.3046682 23.523,24.724 Z"
        opacity=".9" />
      <path fill="url(#c)"
        d="M23.523,24.724 C17.494,27.224 12.46,30.67 9.164,34.824 L0.666,14.3 C4.54230641,9.79643522 9.47627864,6.32592059 15.025,4.2 C21.054,1.7 27.145,0.49 32.32,1.195 L40.82,21.718 C34.8943454,21.2717289 28.950649,22.3046682 23.523,24.724 Z"
        opacity=".7" />
    </g>
    <path fill="#5A78FF"
      d="M47.292 41.981C40.766 41.981 34.792 43.242 30.162 45.816L30.162 25.064C35.466463 22.3872492 41.3525657 21.0694907 47.292 21.229 53.818 21.229 59.909 22.439 64.421 25.069L64.421 45.821C59.1175098 43.1420473 53.2315862" />
  </g>
</svg>